<svg xmlns="http://www.w3.org/2000/svg" width="47" height="47" viewBox="0 0 47 47">
  <g id="Group_21023" data-name="Group 21023" transform="translate(-64 -375)">
    <rect id="Rectangle_21070" data-name="Rectangle 21070" width="47" height="47" transform="translate(64 375)" fill="#00b9bd"/>
    <path id="square-quote-light-full" d="M122.481,98.207a2.2,2.2,0,0,1,2.207,2.207v22.068a2.2,2.2,0,0,1-2.207,2.207H100.414a2.2,2.2,0,0,1-2.207-2.207V100.414a2.2,2.2,0,0,1,2.207-2.207ZM100.414,96A4.418,4.418,0,0,0,96,100.414v22.068a4.418,4.418,0,0,0,4.414,4.414h22.068a4.418,4.418,0,0,0,4.414-4.414V100.414A4.418,4.418,0,0,0,122.481,96Zm9.931,17.544v-5.958a2.758,2.758,0,0,0-2.758-2.758h-2.207a2.758,2.758,0,0,0-2.758,2.758v2.207a2.758,2.758,0,0,0,2.758,2.758h2.207a2.934,2.934,0,0,0,.552-.055v1.048a2.212,2.212,0,0,1-1.9,2.186l-1.021.145a1.1,1.1,0,1,0,.31,2.186l1.021-.145a4.413,4.413,0,0,0,3.786-4.372Zm-2.207-3.752a.553.553,0,0,1-.552.552h-2.207a.553.553,0,0,1-.552-.552v-2.207a.553.553,0,0,1,.552-.552h2.207a.553.553,0,0,1,.552.552Zm12.137,0v-2.207a2.758,2.758,0,0,0-2.758-2.758h-2.207a2.758,2.758,0,0,0-2.758,2.758v2.207a2.758,2.758,0,0,0,2.758,2.758h2.207a2.934,2.934,0,0,0,.552-.055v1.048a2.212,2.212,0,0,1-1.9,2.186l-1.021.145a1.1,1.1,0,1,0,.31,2.186l1.021-.145a4.419,4.419,0,0,0,3.793-4.372Zm-2.207-1.1v1.1a.553.553,0,0,1-.552.552h-2.207a.553.553,0,0,1-.552-.552v-2.207a.553.553,0,0,1,.552-.552h2.207a.553.553,0,0,1,.552.552Z" transform="translate(-23.504 286.496)" fill="#fff"/>
  </g>
</svg>
